{"glyphs":{"0":{"ha":802,"x_min":36,"x_max":766,"o":"m 36 524 q 127 896 36 722 q 401 1069 218 1069 q 675 895 585 1069 q 766 524 766 721 q 675 151 766 323 q 401 -22 585 -22 q 127 151 218 -22 q 36 524 36 325 m 161 525 q 218 235 161 375 q 401 94 275 94 q 584 236 526 94 q 642 525 642 378 q 585 817 642 676 q 401 958 528 958 q 219 815 277 958 q 161 525 161 672 z "},"1":{"ha":802,"x_min":171,"x_max":478,"o":"m 171 928 l 243 1047 l 478 1047 l 478 0 l 353 0 l 353 928 l 171 928 z "},"2":{"ha":802,"x_min":62,"x_max":739,"o":"m 739 119 l 739 0 l 62 0 l 521 562 q 594 671 575 629 q 614 750 614 713 q 553 892 614 833 q 408 950 492 950 q 267 894 328 950 q 207 758 207 838 l 77 758 q 179 985 92 900 q 408 1069 267 1069 q 642 979 545 1069 q 739 755 739 889 q 661 541 739 636 l 317 119 l 739 119 z "},"3":{"ha":802,"x_min":74,"x_max":728,"o":"m 382 608 q 531 648 475 608 q 587 777 587 688 q 536 906 587 856 q 406 956 485 956 q 289 915 335 956 q 232 806 243 875 l 103 806 q 200 1002 121 935 q 410 1069 279 1069 q 626 992 538 1069 q 713 787 713 916 q 579 551 713 626 q 690 448 653 517 q 728 292 728 379 q 633 63 728 149 q 393 -22 538 -22 q 169 56 264 -22 q 74 258 74 134 l 200 258 q 267 137 210 183 q 403 92 323 92 q 546 151 489 92 q 603 297 603 211 q 543 448 603 395 q 382 500 482 500 l 382 608 z "},"4":{"ha":802,"x_min":9,"x_max":771,"o":"m 771 267 l 771 153 l 652 153 l 652 0 l 526 0 l 526 153 l 9 153 l 652 1092 l 652 267 l 771 267 m 526 699 l 229 267 l 526 267 l 526 699 z "},"5":{"ha":802,"x_min":41,"x_max":749,"o":"m 404 928 l 339 713 l 412 717 q 654 608 559 717 q 749 350 749 500 q 637 82 749 186 q 361 -22 526 -22 q 175 27 264 -22 q 41 161 86 77 l 139 253 q 231 142 163 188 q 371 97 300 97 q 550 172 477 97 q 624 354 624 248 q 550 529 624 456 q 374 603 476 603 q 264 578 315 603 q 178 510 212 554 l 153 510 l 314 1047 l 733 1047 l 733 928 l 404 928 z "},"6":{"ha":802,"x_min":56,"x_max":750,"o":"m 621 1006 l 342 628 l 345 625 q 395 643 368 636 q 447 650 421 650 q 662 551 573 650 q 750 322 750 452 q 649 78 750 178 q 404 -22 547 -22 q 161 76 267 -22 q 56 313 56 175 q 85 450 56 387 q 170 589 114 514 l 526 1069 l 621 1006 m 625 309 q 557 468 625 403 q 403 533 489 533 q 248 467 315 533 q 180 315 180 401 q 246 160 180 225 q 403 94 311 94 q 558 158 492 94 q 625 309 625 222 z "},"7":{"ha":802,"x_min":65,"x_max":819,"o":"m 65 928 l 65 1047 l 819 1047 l 167 -22 l 65 40 l 607 928 l 65 928 z "},"8":{"ha":802,"x_min":74,"x_max":729,"o":"m 199 292 q 261 154 199 214 q 401 94 323 94 q 543 153 481 94 q 604 292 604 212 q 544 431 604 374 q 401 489 484 489 q 260 431 321 489 q 199 292 199 372 m 239 543 q 138 641 174 581 q 102 778 102 701 q 189 987 102 904 q 401 1069 275 1069 q 614 987 528 1069 q 701 778 701 904 q 665 641 701 701 q 564 543 629 581 q 686 447 643 515 q 729 292 729 379 q 634 64 729 150 q 401 -22 539 -22 q 168 63 262 -22 q 74 292 74 149 q 116 447 74 379 q 239 543 158 515 m 224 778 q 280 658 224 715 q 401 600 336 600 q 524 657 468 600 q 579 778 579 714 q 526 906 579 853 q 401 958 473 958 q 277 905 331 958 q 224 778 224 852 z "},"9":{"ha":802,"x_min":72,"x_max":766,"o":"m 201 43 l 481 419 l 478 422 q 431 408 457 413 q 376 403 406 403 q 161 500 250 403 q 72 725 72 597 q 174 969 72 869 q 418 1069 275 1069 q 661 971 555 1069 q 766 734 766 872 q 736 596 766 663 q 653 458 707 530 l 296 -22 l 201 43 m 642 733 q 577 885 642 818 q 428 953 513 953 q 266 889 334 953 q 197 733 197 825 q 266 578 197 642 q 419 514 334 514 q 579 579 516 514 q 642 733 642 644 z "}," ":{"ha":401,"x_min":0,"x_max":0,"o":""},"!":{"ha":446,"x_min":143,"x_max":304,"o":"m 304 58 q 281 1 304 25 q 224 -22 257 -22 q 167 1 191 -22 q 143 58 143 25 q 167 115 143 92 q 224 139 191 139 q 281 115 257 139 q 304 58 304 92 m 161 1047 l 286 1047 l 286 241 l 161 241 l 161 1047 z "},"\"":{"ha":610,"x_min":125,"x_max":485,"o":"m 261 1047 l 236 591 l 150 591 l 125 1047 l 261 1047 m 485 1047 l 460 591 l 374 591 l 349 1047 l 485 1047 z "},"#":{"ha":802,"x_min":35,"x_max":768,"o":"m 408 997 l 358 728 l 530 728 l 579 997 l 689 997 l 640 728 l 768 728 l 768 616 l 619 616 l 582 403 l 722 403 l 722 292 l 559 292 l 507 0 l 401 0 l 453 292 l 282 292 l 227 0 l 122 0 l 174 292 l 35 292 l 35 403 l 195 403 l 232 616 l 86 616 l 86 728 l 252 728 l 301 997 l 408 997 m 302 403 l 473 403 l 511 616 l 340 616 l 302 403 z "},"$":{"ha":802,"x_min":69,"x_max":733,"o":"m 463 109 q 567 176 525 122 q 608 297 608 231 q 569 405 608 361 q 463 485 530 449 l 463 109 m 393 1194 l 463 1194 l 463 1069 q 700 908 621 1054 l 590 846 q 463 949 550 922 l 463 623 q 660 494 586 568 q 733 302 733 419 q 653 91 733 189 q 463 -22 574 -7 l 463 -154 l 393 -154 l 393 -22 q 181 62 273 -22 q 69 269 89 147 l 195 296 q 258 158 213 204 q 393 100 302 111 l 393 517 l 343 542 q 193 647 243 593 q 143 796 143 701 q 217 986 143 903 q 393 1069 290 1069 l 393 1194 m 393 949 q 301 901 338 941 q 264 806 264 861 q 298 714 264 749 q 393 656 332 679 l 393 949 z "},"%":{"ha":983,"x_min":24,"x_max":961,"o":"m 513 831 q 440 663 513 732 q 268 593 368 593 q 97 663 170 593 q 24 831 24 733 q 96 1000 24 930 q 268 1069 168 1069 q 440 1000 368 1069 q 513 831 513 930 m 107 831 q 155 722 107 767 q 268 676 203 676 q 381 721 333 676 q 429 831 429 766 q 382 940 429 895 q 268 986 335 986 q 155 941 203 986 q 107 831 107 896 m 829 1034 l 218 -22 l 154 12 l 766 1069 l 829 1034 m 961 215 q 889 47 961 117 q 717 -22 817 -22 q 545 48 618 -22 q 472 215 472 118 q 544 385 472 315 q 717 454 616 454 q 889 385 817 454 q 961 215 961 315 m 555 215 q 604 106 555 151 q 717 61 652 61 q 830 106 782 61 q 878 215 878 151 q 830 325 878 279 q 717 371 783 371 q 604 326 652 371 q 555 215 555 280 z "},"&":{"ha":961,"x_min":74,"x_max":983,"o":"m 386 509 q 244 398 292 444 q 196 288 196 353 q 256 154 196 214 q 390 94 315 94 q 494 122 440 94 q 631 233 547 150 l 399 517 l 386 509 m 443 692 q 543 777 517 750 q 568 852 568 803 q 534 937 568 907 q 446 966 500 966 q 363 935 397 966 q 329 856 329 904 q 347 787 329 813 q 392 725 364 761 l 427 681 l 443 692 m 708 142 q 565 23 646 68 q 395 -22 484 -22 q 167 64 260 -22 q 74 286 74 151 q 121 437 74 376 q 257 564 168 498 l 322 611 q 237 722 268 667 q 207 840 207 778 q 275 1008 207 946 q 449 1069 343 1069 q 620 1010 549 1069 q 690 851 690 951 q 638 714 690 773 q 500 590 586 654 l 718 326 l 840 468 l 924 382 l 796 232 l 983 0 l 822 0 l 708 142 z "},"'":{"ha":385,"x_min":125,"x_max":261,"o":"m 261 1047 l 236 591 l 150 591 l 125 1047 l 261 1047 z "},"(":{"ha":406,"x_min":79,"x_max":326,"o":"m 326 1047 q 236 755 265 921 q 207 428 207 590 q 235 101 207 261 q 326 -192 264 -60 l 224 -268 q 115 59 150 -125 q 79 428 79 243 q 115 796 79 611 q 224 1124 150 981 l 326 1047 z "},")":{"ha":406,"x_min":79,"x_max":326,"o":"m 182 1124 q 291 797 256 981 q 326 428 326 614 q 291 61 326 246 q 182 -268 256 -123 l 79 -192 q 170 100 140 -66 q 199 428 199 265 q 170 755 199 595 q 79 1047 142 916 l 182 1124 z "},"*":{"ha":600,"x_min":87,"x_max":513,"o":"m 351 1047 l 351 916 l 464 982 l 513 900 l 395 831 l 513 761 l 464 681 l 351 750 l 351 616 l 256 616 l 256 751 l 135 684 l 87 762 l 205 831 l 89 900 l 132 979 l 256 911 l 256 1047 l 351 1047 z "},"+":{"ha":802,"x_min":46,"x_max":757,"o":"m 461 711 l 461 415 l 757 415 l 757 296 l 461 296 l 461 0 l 342 0 l 342 296 l 46 296 l 46 415 l 342 415 l 342 711 l 461 711 z "},",":{"ha":401,"x_min":75,"x_max":336,"o":"m 336 122 l 151 -249 l 75 -216 l 228 165 l 336 122 z "},"-":{"ha":460,"x_min":79,"x_max":383,"o":"m 383 497 l 383 393 l 79 393 l 79 497 l 383 497 z "},".":{"ha":401,"x_min":121,"x_max":282,"o":"m 282 58 q 258 1 282 25 q 201 -22 235 -22 q 144 1 168 -22 q 121 58 121 25 q 144 115 121 92 q 201 139 168 139 q 258 115 235 139 q 282 58 282 92 z "},"/":{"ha":765,"x_min":45,"x_max":722,"o":"m 722 1161 l 143 -175 l 45 -131 l 623 1206 l 722 1161 z "},":":{"ha":401,"x_min":121,"x_max":282,"o":"m 282 58 q 258 1 282 25 q 201 -22 235 -22 q 144 1 168 -22 q 121 58 121 25 q 144 115 121 92 q 201 139 168 139 q 258 115 235 139 q 282 58 282 92 m 282 589 q 258 532 282 555 q 201 509 235 509 q 144 532 168 509 q 121 589 121 555 q 144 646 121 622 q 201 669 168 669 q 258 646 235 669 q 282 589 282 622 z "},";":{"ha":401,"x_min":64,"x_max":347,"o":"m 325 122 l 140 -249 l 64 -216 l 216 165 l 325 122 m 347 589 q 323 532 347 555 q 267 509 300 509 q 210 532 233 509 q 186 589 186 555 q 210 646 186 622 q 267 669 233 669 q 323 646 300 669 q 347 589 347 622 z "},"<":{"ha":802,"x_min":46,"x_max":757,"o":"m 757 561 l 224 355 l 757 150 l 757 20 l 46 307 l 46 404 l 757 692 l 757 561 z "},"=":{"ha":802,"x_min":46,"x_max":757,"o":"m 757 534 l 757 415 l 46 415 l 46 534 l 757 534 m 757 296 l 757 176 l 46 176 l 46 296 l 757 296 z "},">":{"ha":802,"x_min":46,"x_max":757,"o":"m 46 692 l 757 404 l 757 307 l 46 20 l 46 150 l 579 355 l 46 561 l 46 692 z "},"?":{"ha":629,"x_min":71,"x_max":570,"o":"m 543 479 q 475 322 543 389 q 318 256 407 256 q 160 319 225 256 q 94 478 94 383 q 140 609 94 567 q 277 685 186 652 q 406 742 368 718 q 443 828 443 766 q 408 918 443 884 q 315 951 372 951 q 231 917 265 951 q 196 832 196 882 q 198 811 196 823 q 204 787 200 800 l 74 787 l 71 833 q 144 1001 71 933 q 319 1069 218 1069 q 498 999 427 1069 q 570 823 570 929 q 549 728 570 774 q 496 654 529 682 q 428 610 464 625 q 334 577 392 595 q 249 537 277 559 q 221 472 221 514 q 249 401 221 431 q 318 372 277 372 q 390 402 363 372 q 416 479 416 432 l 543 479 m 399 58 q 375 1 399 25 q 318 -22 351 -22 q 261 1 285 -22 q 237 58 237 25 q 261 115 237 92 q 318 139 285 139 q 375 115 351 139 q 399 58 399 92 z "},"@":{"ha":1111,"x_min":50,"x_max":1063,"o":"m 557 693 q 426 627 477 693 q 374 481 374 561 q 411 369 374 416 q 513 322 449 322 q 643 377 599 322 q 694 478 688 432 q 700 534 700 525 l 700 549 q 661 655 700 618 q 557 693 622 693 m 753 789 l 851 789 l 782 432 l 776 400 q 771 354 771 375 q 777 323 771 334 q 802 313 783 313 q 902 397 852 313 q 951 579 951 481 q 845 855 951 751 q 576 958 739 958 q 281 831 401 958 q 161 524 161 704 q 290 213 161 336 q 600 89 418 89 q 859 155 779 89 l 962 72 q 794 2 875 26 q 589 -22 713 -22 q 206 133 362 -22 q 50 524 50 288 q 204 912 50 755 q 581 1069 358 1069 q 756 1040 673 1069 q 909 948 839 1010 q 1021 804 979 886 q 1063 629 1063 722 q 1040 465 1063 542 q 974 330 1018 389 q 873 243 929 272 q 762 214 817 214 q 714 236 733 214 q 688 300 694 258 q 603 237 648 260 q 498 214 558 214 q 335 290 406 214 q 265 471 265 366 q 345 702 265 603 q 549 802 424 802 q 648 779 603 802 q 733 703 693 755 l 753 789 z "},"A":{"ha":976,"x_min":-11,"x_max":989,"o":"m 249 262 l 129 0 l -11 0 l 489 1092 l 989 0 l 848 0 l 729 262 l 249 262 m 489 806 l 302 382 l 675 382 l 489 806 z "},"B":{"ha":743,"x_min":89,"x_max":697,"o":"m 220 583 l 253 583 q 420 619 361 583 q 478 758 478 654 q 420 895 478 860 q 256 930 363 930 l 220 930 l 220 583 m 220 117 l 319 117 q 497 158 428 117 q 567 301 567 199 q 489 440 567 401 q 300 479 411 479 l 220 479 l 220 117 m 89 1047 l 216 1047 q 495 985 390 1047 q 600 760 600 922 q 570 642 600 699 q 488 561 539 586 q 638 465 579 543 q 697 293 697 387 q 592 73 697 146 q 334 0 486 0 l 89 0 l 89 1047 z "},"C":{"ha":918,"x_min":41,"x_max":863,"o":"m 863 847 q 734 924 807 897 q 586 950 661 950 q 292 824 412 950 q 172 522 172 699 q 291 223 172 349 q 583 97 410 97 q 863 205 741 97 l 863 52 q 730 -3 804 17 q 587 -22 656 -22 q 201 135 361 -22 q 41 518 41 292 q 204 910 41 750 q 599 1069 367 1069 q 737 1052 671 1069 q 863 999 803 1035 l 863 847 z "},"D":{"ha":923,"x_min":89,"x_max":893,"o":"m 89 1047 l 306 1047 q 727 914 560 1047 q 893 529 893 781 q 728 135 893 271 q 301 0 564 0 l 89 0 l 89 1047 m 220 119 l 265 119 q 625 215 488 119 q 762 524 762 310 q 625 832 762 737 q 265 928 488 928 l 220 928 l 220 119 z "},"E":{"ha":724,"x_min":100,"x_max":663,"o":"m 100 1047 l 663 1047 l 663 928 l 231 928 l 231 635 l 650 635 l 650 515 l 231 515 l 231 119 l 663 119 l 663 0 l 100 0 l 100 1047 z "},"F":{"ha":658,"x_min":98,"x_max":606,"o":"m 229 928 l 229 633 l 593 633 l 593 514 l 229 514 l 229 0 l 98 0 l 98 1047 l 606 1047 l 606 928 l 229 928 z "},"G":{"ha":1083,"x_min":29,"x_max":1054,"o":"m 1054 528 l 1054 486 q 916 122 1054 267 q 558 -22 778 -22 q 184 139 340 -22 q 29 521 29 300 q 188 908 29 747 q 572 1069 346 1069 q 808 1017 696 1069 q 999 867 921 964 l 907 779 q 761 904 850 857 q 578 950 672 950 q 281 826 401 950 q 160 525 160 703 q 280 227 160 357 q 567 97 400 97 q 801 191 692 97 q 909 408 909 285 l 639 408 l 639 528 l 1054 528 z "},"H":{"ha":937,"x_min":89,"x_max":848,"o":"m 718 625 l 718 1047 l 848 1047 l 848 0 l 718 0 l 718 503 l 220 503 l 220 0 l 89 0 l 89 1047 l 220 1047 l 220 625 l 718 625 z "},"I":{"ha":322,"x_min":96,"x_max":227,"o":"m 227 0 l 96 0 l 96 1047 l 227 1047 l 227 0 z "},"J":{"ha":503,"x_min":-26,"x_max":421,"o":"m 421 1047 l 421 382 q 363 88 421 199 q 138 -22 304 -22 q -26 24 52 -22 l 39 135 q 143 100 85 100 q 265 178 240 100 q 290 382 290 257 l 290 1047 l 421 1047 z "},"K":{"ha":833,"x_min":100,"x_max":854,"o":"m 675 1047 l 846 1047 l 375 576 l 854 0 l 677 0 l 283 488 l 231 437 l 231 0 l 100 0 l 100 1047 l 231 1047 l 231 593 l 675 1047 z "},"L":{"ha":534,"x_min":100,"x_max":549,"o":"m 231 119 l 549 119 l 549 0 l 100 0 l 100 1047 l 231 1047 l 231 119 z "},"M":{"ha":1181,"x_min":18,"x_max":1165,"o":"m 278 692 l 153 0 l 18 0 l 232 1092 l 591 267 l 951 1092 l 1165 0 l 1031 0 l 908 692 l 591 -22 l 278 692 z "},"N":{"ha":1090,"x_min":87,"x_max":1004,"o":"m 87 1097 l 873 273 l 873 1047 l 1004 1047 l 1004 -43 l 218 781 l 218 0 l 87 0 l 87 1097 z "},"O":{"ha":1149,"x_min":26,"x_max":1124,"o":"m 1124 524 q 964 135 1124 292 q 575 -22 804 -22 q 186 135 346 -22 q 26 524 26 292 q 188 909 26 749 q 575 1069 350 1069 q 962 909 800 1069 q 1124 524 1124 749 m 993 524 q 875 824 993 700 q 575 947 757 947 q 275 824 393 947 q 157 524 157 700 q 280 223 157 346 q 575 100 403 100 q 869 222 746 100 q 993 524 993 345 z "},"P":{"ha":687,"x_min":100,"x_max":672,"o":"m 231 0 l 100 0 l 100 1047 l 250 1047 q 577 972 482 1047 q 672 745 672 897 q 569 514 672 589 q 306 439 467 439 l 231 439 l 231 0 m 231 555 l 272 555 q 473 595 395 555 q 550 747 550 635 q 489 881 550 832 q 265 930 428 930 l 231 930 l 231 555 z "},"Q":{"ha":1149,"x_min":26,"x_max":1124,"o":"m 964 -22 l 873 71 q 731 1 808 24 q 575 -22 654 -22 q 186 135 346 -22 q 26 524 26 292 q 188 909 26 749 q 575 1069 350 1069 q 962 909 800 1069 q 1124 524 1124 749 q 1081 312 1124 412 q 960 138 1039 212 l 1122 -22 l 964 -22 m 871 231 q 961 363 929 283 q 993 524 993 443 q 875 824 993 700 q 575 947 757 947 q 275 824 393 947 q 157 524 157 700 q 280 223 157 346 q 575 100 403 100 q 681 114 628 100 q 783 160 734 129 l 543 395 l 705 395 l 871 231 z "},"R":{"ha":754,"x_min":100,"x_max":751,"o":"m 751 0 l 593 0 l 285 443 l 231 443 l 231 0 l 100 0 l 100 1047 l 258 1047 q 417 1040 358 1047 q 537 997 476 1032 q 635 893 599 961 q 672 749 672 825 q 603 551 672 633 q 421 456 533 469 l 751 0 m 231 551 l 272 551 q 473 591 395 551 q 550 743 550 631 q 470 892 550 854 q 265 930 390 930 l 231 930 l 231 551 z "},"S":{"ha":745,"x_min":45,"x_max":703,"o":"m 566 848 q 497 923 536 899 q 397 947 457 947 q 276 906 330 947 q 222 799 222 864 q 265 708 222 745 q 368 648 307 672 l 443 619 q 635 499 568 570 q 703 304 703 428 q 606 70 703 163 q 368 -22 510 -22 q 152 61 242 -22 q 45 271 61 144 l 176 298 q 234 156 176 212 q 379 100 292 100 q 517 160 463 100 q 572 304 572 220 q 535 410 572 361 q 392 503 498 458 l 319 533 q 152 639 212 579 q 92 799 92 699 q 183 995 92 921 q 400 1069 275 1069 q 557 1029 488 1069 q 669 911 627 989 l 566 848 z "},"T":{"ha":633,"x_min":3,"x_max":631,"o":"m 382 0 l 252 0 l 252 928 l 3 928 l 3 1047 l 631 1047 l 631 928 l 382 928 l 382 0 z "},"U":{"ha":929,"x_min":82,"x_max":848,"o":"m 212 1047 l 212 429 q 269 190 212 281 q 465 100 325 100 q 661 191 604 100 q 718 429 718 282 l 718 1047 l 848 1047 l 848 385 q 745 92 848 207 q 465 -22 642 -22 q 185 92 289 -22 q 82 385 82 207 l 82 1047 l 212 1047 z "},"V":{"ha":888,"x_min":-9,"x_max":900,"o":"m 446 272 l 757 1047 l 900 1047 l 446 -56 l -9 1047 l 134 1047 l 446 272 z "},"W":{"ha":1426,"x_min":-17,"x_max":1444,"o":"m 418 297 l 714 1069 l 1010 297 l 1303 1047 l 1444 1047 l 1010 -41 l 714 726 l 418 -41 l -17 1047 l 125 1047 l 418 297 z "},"X":{"ha":797,"x_min":0,"x_max":796,"o":"m 40 1047 l 189 1047 l 403 665 l 631 1047 l 779 1047 l 478 549 l 796 0 l 650 0 l 403 429 l 146 0 l 0 0 l 329 549 l 40 1047 z "},"Y":{"ha":795,"x_min":-8,"x_max":806,"o":"m -8 1047 l 142 1047 l 399 600 l 656 1047 l 806 1047 l 464 456 l 464 0 l 334 0 l 334 456 l -8 1047 z "},"Z":{"ha":766,"x_min":12,"x_max":755,"o":"m 755 119 l 755 0 l 12 0 l 543 928 l 87 928 l 87 1047 l 755 1047 l 225 119 l 755 119 z "},"[":{"ha":431,"x_min":85,"x_max":349,"o":"m 212 -151 l 349 -151 l 349 -268 l 85 -268 l 85 1124 l 349 1124 l 349 1007 l 212 1007 l 212 -151 z "},"\\":{"ha":765,"x_min":43,"x_max":721,"o":"m 160 1206 l 721 0 l 604 0 l 43 1206 l 160 1206 z "},"]":{"ha":431,"x_min":83,"x_max":347,"o":"m 220 1007 l 83 1007 l 83 1124 l 347 1124 l 347 -268 l 83 -268 l 83 -151 l 220 -151 l 220 1007 z "},"^":{"ha":802,"x_min":46,"x_max":757,"o":"m 323 1047 l 479 1047 l 757 428 l 627 428 l 401 930 l 175 428 l 46 428 l 323 1047 z "},"_":{"ha":694,"x_min":0,"x_max":694,"o":"m 694 -261 l 0 -261 l 0 -157 l 694 -157 l 694 -261 z "},"`":{"ha":500,"x_min":106,"x_max":395,"o":"m 221 1019 l 395 789 l 334 751 l 106 958 l 221 1019 z "},"a":{"ha":772,"x_min":36,"x_max":696,"o":"m 578 325 q 522 491 578 425 q 367 558 465 558 q 218 490 274 558 q 161 325 161 421 q 217 158 161 228 q 367 89 272 89 q 522 156 465 89 q 578 325 578 223 m 696 0 l 571 0 l 571 102 q 472 11 530 45 q 347 -22 415 -22 q 119 80 203 -22 q 36 329 36 182 q 121 569 36 468 q 343 669 205 669 q 470 635 412 669 q 568 542 528 602 l 571 650 l 696 650 l 696 0 z "},"b":{"ha":772,"x_min":77,"x_max":736,"o":"m 611 325 q 555 491 611 425 q 400 558 498 558 q 251 490 307 558 q 195 325 195 421 q 250 158 195 228 q 400 89 306 89 q 555 156 498 89 q 611 325 611 223 m 77 1206 l 201 1206 l 201 542 q 301 635 243 602 q 431 669 359 669 q 651 569 567 669 q 736 329 736 469 q 653 80 736 182 q 425 -22 570 -22 q 300 10 356 -22 q 204 102 244 43 l 201 0 l 77 0 l 77 1206 z "},"c":{"ha":612,"x_min":36,"x_max":564,"o":"m 564 465 q 378 553 487 553 q 224 485 286 553 q 161 325 161 418 q 224 159 161 223 q 386 94 288 94 q 483 115 440 94 q 564 180 525 136 l 564 21 q 385 -22 483 -22 q 137 76 239 -22 q 36 319 36 175 q 139 569 36 469 q 392 669 241 669 q 482 660 439 669 q 564 627 525 650 l 564 465 z "},"d":{"ha":772,"x_min":36,"x_max":696,"o":"m 578 325 q 522 491 578 425 q 367 558 465 558 q 218 490 274 558 q 161 325 161 421 q 217 158 161 228 q 367 89 272 89 q 522 156 465 89 q 578 325 578 223 m 571 102 q 472 12 531 46 q 347 -22 414 -22 q 119 80 203 -22 q 36 329 36 182 q 121 569 36 468 q 342 669 205 669 q 470 636 412 669 q 568 542 528 603 l 571 1206 l 696 1206 l 696 0 l 571 0 l 571 102 z "},"e":{"ha":677,"x_min":36,"x_max":657,"o":"m 161 304 q 216 154 161 218 q 357 89 271 89 q 469 119 425 89 q 551 215 513 150 l 657 155 q 531 25 612 73 q 355 -22 450 -22 q 123 74 210 -22 q 36 319 36 171 q 118 573 36 476 q 353 669 200 669 q 579 573 501 669 q 657 323 657 476 l 657 304 l 161 304 m 532 399 q 474 518 519 475 q 353 561 428 561 q 231 516 281 561 q 168 399 180 471 l 532 399 z "},"f":{"ha":382,"x_min":54,"x_max":408,"o":"m 408 1079 q 363 1098 385 1090 q 325 1105 342 1105 q 251 1056 267 1105 q 236 929 236 1006 l 236 650 l 408 650 l 408 533 l 236 533 l 236 0 l 111 0 l 111 533 l 54 533 l 54 650 l 111 650 l 111 966 q 160 1153 111 1083 q 321 1222 208 1222 q 408 1206 367 1222 l 408 1079 z "},"g":{"ha":770,"x_min":35,"x_max":694,"o":"m 576 325 q 520 491 576 425 q 366 558 464 558 q 216 490 273 558 q 160 325 160 421 q 215 158 160 228 q 366 89 271 89 q 520 156 464 89 q 576 325 576 223 m 694 12 q 626 -273 694 -174 q 378 -372 557 -372 q 151 -293 239 -372 q 64 -78 64 -214 l 189 -78 q 242 -212 189 -163 q 383 -261 296 -261 q 529 -198 489 -261 q 570 -22 570 -135 l 570 102 q 471 12 530 46 q 346 -22 412 -22 q 118 80 201 -22 q 35 329 35 182 q 119 569 35 468 q 340 669 204 669 q 469 636 411 669 q 567 539 526 603 l 570 650 l 694 650 l 694 12 z "},"h":{"ha":726,"x_min":86,"x_max":640,"o":"m 211 1206 l 211 562 q 295 642 241 614 q 410 669 349 669 q 589 594 537 669 q 640 387 640 519 l 640 0 l 515 0 l 515 372 q 488 513 515 468 q 372 558 461 558 q 238 490 265 558 q 211 298 211 422 l 211 0 l 86 0 l 86 1206 l 211 1206 z "},"i":{"ha":353,"x_min":90,"x_max":262,"o":"m 239 0 l 114 0 l 114 650 l 239 650 l 239 0 m 262 947 q 237 888 262 913 q 176 863 212 863 q 115 886 140 863 q 90 947 90 909 q 115 1009 90 983 q 176 1035 139 1035 q 237 1010 212 1035 q 262 947 262 985 z "},"j":{"ha":353,"x_min":90,"x_max":262,"o":"m 239 -372 l 114 -372 l 114 650 l 239 650 l 239 -372 m 262 947 q 237 888 262 913 q 176 863 212 863 q 115 886 140 863 q 90 947 90 909 q 115 1009 90 983 q 176 1035 139 1035 q 237 1010 212 1035 q 262 947 262 985 z "},"k":{"ha":642,"x_min":94,"x_max":657,"o":"m 220 406 l 464 650 l 629 650 l 351 380 l 657 0 l 494 0 l 262 296 l 220 253 l 220 0 l 94 0 l 94 1206 l 220 1206 l 220 406 z "},"l":{"ha":308,"x_min":92,"x_max":216,"o":"m 216 0 l 92 0 l 92 1206 l 216 1206 l 216 0 z "},"m":{"ha":1065,"x_min":82,"x_max":985,"o":"m 207 568 q 284 642 237 614 q 382 669 330 669 q 490 640 443 669 q 570 554 538 610 q 654 638 600 607 q 770 669 708 669 q 936 592 888 669 q 985 389 985 514 l 985 0 l 860 0 l 860 368 q 837 506 860 454 q 739 558 814 558 q 624 490 652 558 q 596 319 596 422 l 596 0 l 471 0 l 471 345 q 450 499 471 440 q 351 558 429 558 q 235 491 262 558 q 207 319 207 424 l 207 0 l 82 0 l 82 650 l 207 650 l 207 568 z "},"n":{"ha":726,"x_min":86,"x_max":640,"o":"m 211 562 q 295 642 241 614 q 410 669 349 669 q 589 594 537 669 q 640 387 640 519 l 640 0 l 515 0 l 515 372 q 488 513 515 468 q 372 558 461 558 q 238 490 265 558 q 211 298 211 422 l 211 0 l 86 0 l 86 650 l 211 650 l 211 562 z "},"o":{"ha":749,"x_min":28,"x_max":722,"o":"m 722 323 q 622 77 722 176 q 375 -22 521 -22 q 129 77 229 -22 q 28 323 28 176 q 129 570 28 471 q 375 669 229 669 q 622 570 521 669 q 722 323 722 471 m 153 323 q 217 164 153 232 q 375 97 282 97 q 532 164 467 97 q 597 323 597 231 q 533 484 597 418 q 375 550 468 550 q 218 483 283 550 q 153 323 153 416 z "},"p":{"ha":772,"x_min":77,"x_max":736,"o":"m 611 325 q 555 491 611 425 q 400 558 498 558 q 251 490 307 558 q 195 325 195 421 q 250 158 195 228 q 400 89 306 89 q 555 156 498 89 q 611 325 611 223 m 201 542 q 301 635 243 602 q 431 669 359 669 q 651 569 567 669 q 736 329 736 469 q 653 80 736 182 q 425 -22 570 -22 q 300 10 356 -22 q 204 102 244 43 l 201 -372 l 77 -372 l 77 650 l 201 650 l 201 542 z "},"q":{"ha":772,"x_min":36,"x_max":696,"o":"m 578 325 q 522 491 578 425 q 367 558 465 558 q 218 490 274 558 q 161 325 161 421 q 217 158 161 228 q 367 89 272 89 q 522 156 465 89 q 578 325 578 223 m 696 -372 l 571 -372 l 571 102 q 472 12 531 46 q 347 -22 414 -22 q 119 80 203 -22 q 36 329 36 182 q 121 569 36 468 q 342 669 205 669 q 470 636 412 669 q 568 542 528 603 l 571 650 l 696 650 l 696 -372 z "},"r":{"ha":487,"x_min":94,"x_max":504,"o":"m 220 545 q 293 637 248 604 q 401 669 339 669 q 454 661 428 669 q 504 637 481 653 l 447 524 q 371 550 416 550 q 250 486 281 550 q 220 319 220 422 l 220 0 l 94 0 l 94 650 l 220 650 l 220 545 z "},"s":{"ha":533,"x_min":49,"x_max":497,"o":"m 347 501 q 313 542 336 526 q 264 558 290 558 q 217 540 237 558 q 196 494 196 522 q 227 437 196 457 q 338 382 258 418 q 457 305 418 346 q 497 193 497 264 q 431 40 497 102 q 273 -22 366 -22 q 137 17 199 -22 q 49 123 75 56 l 155 172 q 205 110 178 131 q 273 89 232 89 q 343 115 315 89 q 372 180 372 140 q 365 216 372 201 q 326 252 358 231 l 204 317 q 110 385 140 351 q 79 481 79 419 q 136 615 79 560 q 271 669 192 669 q 376 640 329 669 q 449 555 422 610 l 347 501 z "},"t":{"ha":333,"x_min":36,"x_max":351,"o":"m 229 0 l 104 0 l 104 533 l 36 533 l 36 650 l 104 650 l 104 899 l 229 899 l 229 650 l 351 650 l 351 533 l 229 533 l 229 0 z "},"u":{"ha":711,"x_min":81,"x_max":631,"o":"m 205 650 l 205 290 q 237 146 205 199 q 355 94 269 94 q 473 147 440 94 q 505 290 505 200 l 505 650 l 631 650 l 631 277 q 563 58 631 138 q 355 -22 494 -22 q 149 57 216 -22 q 81 277 81 136 l 81 650 l 205 650 z "},"v":{"ha":618,"x_min":-18,"x_max":636,"o":"m 309 244 l 496 650 l 636 650 l 309 -22 l -18 650 l 122 650 l 309 244 z "},"w":{"ha":997,"x_min":-22,"x_max":1021,"o":"m 309 236 l 500 686 l 690 236 l 879 650 l 1021 650 l 690 -22 l 500 412 l 309 -22 l -22 650 l 119 650 l 309 236 z "},"x":{"ha":679,"x_min":-20,"x_max":699,"o":"m 37 650 l 184 650 l 339 440 l 507 650 l 659 650 l 419 353 l 699 0 l 553 0 l 339 264 l 132 0 l -20 0 l 271 353 l 37 650 z "},"y":{"ha":672,"x_min":-18,"x_max":692,"o":"m -18 650 l 127 650 l 347 237 l 551 650 l 692 650 l 165 -372 l 24 -372 l 279 111 l -18 650 z "},"z":{"ha":687,"x_min":3,"x_max":686,"o":"m 668 117 l 668 0 l 3 0 l 443 533 l 78 533 l 78 650 l 686 650 l 245 117 l 668 117 z "},"{":{"ha":464,"x_min":66,"x_max":397,"o":"m 66 478 q 144 554 118 500 q 171 688 171 608 l 171 940 q 211 1070 171 1017 q 289 1124 252 1124 l 397 1124 l 397 1007 l 342 1007 q 306 986 313 1007 q 298 921 298 965 l 298 665 q 270 522 298 585 q 193 427 241 460 q 256 363 213 416 q 298 189 298 310 l 298 -66 q 305 -133 298 -114 q 342 -153 311 -153 l 397 -153 l 397 -269 l 289 -269 q 212 -215 253 -269 q 171 -86 171 -161 l 171 167 q 66 376 171 331 l 66 478 z "},"|":{"ha":791,"x_min":336,"x_max":456,"o":"m 456 0 l 336 0 l 336 1206 l 456 1206 l 456 0 z "},"}":{"ha":464,"x_min":66,"x_max":397,"o":"m 397 376 q 319 300 346 354 q 293 167 293 245 l 293 -86 q 253 -216 293 -163 q 175 -269 212 -269 l 66 -269 l 66 -153 l 122 -153 q 158 -132 151 -153 q 165 -66 165 -111 l 165 189 q 195 334 165 270 q 271 427 224 397 q 201 506 236 450 q 165 665 165 562 l 165 921 q 159 988 165 968 q 122 1007 153 1007 l 66 1007 l 66 1124 l 175 1124 q 252 1069 211 1124 q 293 940 293 1015 l 293 688 q 397 478 293 524 l 397 376 z "},"~":{"ha":802,"x_min":46,"x_max":757,"o":"m 757 395 q 665 273 717 321 q 546 225 614 225 q 473 244 511 225 q 392 292 435 264 q 315 345 350 319 q 261 367 281 367 q 134 253 203 367 l 46 315 q 148 442 103 397 q 258 486 193 486 q 345 468 304 486 q 421 419 385 449 q 490 367 458 390 q 545 345 522 345 q 608 376 586 345 q 664 464 631 407 l 757 395 z "}," ":{"ha":347,"x_min":0,"x_max":0,"o":""},"¡":{"ha":446,"x_min":143,"x_max":304,"o":"m 304 625 q 281 568 304 592 q 224 545 257 545 q 167 568 191 545 q 143 625 143 591 q 167 682 143 659 q 224 705 191 705 q 281 682 257 705 q 304 625 304 659 m 286 449 l 286 -358 l 161 -358 l 161 449 l 286 449 z "},"¢":{"ha":802,"x_min":139,"x_max":664,"o":"m 494 872 q 664 829 587 872 l 664 669 q 588 732 632 708 q 494 757 543 757 l 494 301 q 664 387 596 315 l 664 225 q 589 196 624 205 q 518 186 554 186 l 494 184 l 494 66 l 428 66 l 428 191 q 221 303 303 210 q 139 524 139 396 q 219 753 139 656 q 428 869 298 850 l 428 978 l 494 978 l 494 872 m 428 749 q 309 672 357 741 q 261 529 261 603 q 307 386 261 451 q 428 306 353 321 l 428 749 z "},"£":{"ha":802,"x_min":16,"x_max":807,"o":"m 16 33 q 106 150 58 110 q 229 191 154 191 q 244 251 239 222 q 249 306 249 279 q 241 363 249 335 q 218 418 233 392 l 39 418 l 39 498 l 178 498 q 120 629 143 564 q 97 749 97 694 q 202 976 97 882 q 440 1069 307 1069 q 681 979 587 1069 q 774 745 774 889 l 648 697 l 648 736 q 591 885 648 823 q 446 947 533 947 q 291 881 359 947 q 222 737 222 815 q 259 604 222 668 q 321 498 296 539 l 526 498 l 526 418 l 354 418 q 374 300 374 353 q 354 179 374 248 l 457 143 l 530 115 q 587 103 562 103 q 650 131 625 103 q 703 205 676 158 l 807 142 q 721 23 775 68 q 590 -22 667 -22 q 506 -10 550 -22 q 413 22 463 3 q 320 55 363 41 q 248 68 278 68 q 172 45 201 68 q 125 -22 143 22 l 16 33 z "},"¤":{"ha":802,"x_min":47,"x_max":755,"o":"m 754 675 l 697 614 q 741 521 726 568 q 755 416 755 475 q 741 313 755 359 q 697 220 726 267 l 754 158 l 671 75 l 607 136 q 516 87 566 104 q 401 69 467 69 q 288 86 338 69 q 196 136 239 103 l 132 75 l 49 158 l 106 220 q 62 312 77 266 q 47 416 47 358 q 62 520 47 473 q 106 614 77 567 l 49 675 l 132 758 l 196 697 q 287 746 237 729 q 401 764 336 764 q 514 747 465 764 q 607 697 564 730 l 671 758 l 754 675 m 644 416 q 575 586 644 519 q 401 653 505 653 q 228 586 297 653 q 158 416 158 519 q 229 250 158 319 q 401 180 300 180 q 574 250 503 180 q 644 416 644 319 z "},"¥":{"ha":802,"x_min":-5,"x_max":808,"o":"m 467 0 l 336 0 l 336 361 l 8 361 l 8 441 l 336 441 l 336 456 l 261 586 l 8 586 l 8 667 l 214 667 l -5 1047 l 144 1047 l 401 600 l 659 1047 l 808 1047 l 589 667 l 794 667 l 794 586 l 543 586 l 467 456 l 467 441 l 794 441 l 794 361 l 467 361 l 467 0 z "},"§":{"ha":802,"x_min":56,"x_max":747,"o":"m 541 345 q 601 408 578 368 q 624 490 624 447 q 598 561 624 536 q 518 612 572 585 l 262 742 q 203 677 227 718 q 179 595 179 636 q 209 521 179 547 q 297 465 239 494 l 541 345 m 235 363 q 98 452 140 410 q 56 581 56 494 q 90 704 56 650 q 189 806 125 758 q 144 878 160 839 q 127 960 127 917 q 207 1136 127 1065 q 393 1206 286 1206 q 588 1142 506 1206 q 669 972 669 1079 l 549 972 q 501 1063 549 1029 q 393 1096 453 1096 q 295 1056 336 1096 q 253 957 253 1015 q 285 875 253 907 q 371 817 317 843 l 555 724 q 696 634 646 677 q 747 517 747 590 q 715 386 747 448 q 624 282 682 325 q 697 113 698 213 q 610 -81 697 -7 q 401 -155 524 -155 q 176 -75 264 -155 q 87 143 87 5 l 87 164 l 211 164 q 262 18 211 77 q 400 -41 314 -41 q 521 3 469 -41 q 572 115 572 47 q 537 200 572 170 q 431 267 501 231 l 235 363 z "},"¨":{"ha":652,"x_min":96,"x_max":557,"o":"m 264 880 q 239 820 264 844 q 180 796 215 796 q 120 820 144 796 q 96 880 96 844 q 120 939 96 915 q 180 964 144 964 q 239 939 215 964 q 264 880 264 915 m 557 880 q 533 820 557 844 q 473 796 509 796 q 413 820 437 796 q 389 880 389 844 q 413 939 389 915 q 473 964 437 964 q 532 939 508 964 q 557 880 557 915 z "},"©":{"ha":1111,"x_min":8,"x_max":1103,"o":"m 8 524 q 166 911 8 753 q 555 1069 325 1069 q 944 910 785 1069 q 1103 524 1103 751 q 944 136 1103 294 q 555 -22 786 -22 q 167 137 326 -22 q 8 524 8 296 m 97 524 q 231 199 97 332 q 555 66 366 66 q 879 200 745 66 q 1014 524 1014 334 q 879 849 1014 717 q 555 981 745 981 q 232 849 366 981 q 97 524 97 717 m 749 636 q 690 724 736 693 q 575 754 644 754 q 417 688 471 754 q 363 530 363 623 q 419 367 363 431 q 578 302 476 302 q 749 427 720 302 l 833 427 q 749 272 821 331 q 578 214 676 214 q 358 304 443 214 q 273 528 273 395 q 355 754 273 665 q 576 843 437 843 q 745 788 676 843 q 833 636 814 733 l 749 636 z "},"ª":{"ha":464,"x_min":17,"x_max":447,"o":"m 370 863 q 333 962 370 921 q 232 1003 296 1003 q 135 961 172 1003 q 98 863 98 920 q 133 762 98 803 q 232 721 168 721 q 333 762 296 721 q 370 863 370 803 m 447 668 l 366 668 l 366 728 q 301 674 338 694 q 220 654 264 654 q 71 715 125 654 q 17 865 17 775 q 72 1009 17 949 q 216 1069 127 1069 q 299 1049 261 1069 q 364 993 338 1029 l 366 993 l 366 1057 l 447 1057 l 447 668 m 17 511 l 17 578 l 447 578 l 447 511 l 17 511 z "},"«":{"ha":726,"x_min":41,"x_max":639,"o":"m 639 179 l 561 122 l 309 444 l 561 778 l 639 721 l 432 444 l 639 179 m 372 179 l 294 122 l 41 444 l 294 778 l 372 721 l 165 444 l 372 179 z "},"¬":{"ha":802,"x_min":46,"x_max":757,"o":"m 637 415 l 46 415 l 46 534 l 757 534 l 757 160 l 637 160 l 637 415 z "},"­":{"ha":460,"x_min":79,"x_max":383,"o":"m 383 497 l 383 393 l 79 393 l 79 497 l 383 497 z "},"®":{"ha":1111,"x_min":8,"x_max":1103,"o":"m 8 524 q 166 911 8 753 q 555 1069 325 1069 q 944 910 785 1069 q 1103 524 1103 751 q 944 136 1103 294 q 555 -22 786 -22 q 167 137 326 -22 q 8 524 8 296 m 97 524 q 231 199 97 332 q 555 66 366 66 q 879 200 745 66 q 1014 524 1014 334 q 879 849 1014 717 q 555 981 745 981 q 232 849 366 981 q 97 524 97 717 m 806 212 l 704 212 l 547 496 l 433 496 l 433 212 l 345 212 l 345 827 l 603 827 q 756 790 699 827 q 814 664 814 754 q 766 537 814 579 q 650 496 718 496 l 806 212 m 433 737 l 433 585 l 528 585 q 560 584 543 585 q 595 583 576 583 q 700 601 674 583 q 725 654 725 619 q 690 722 725 707 q 586 737 654 737 l 433 737 z "},"¯":{"ha":401,"x_min":-250,"x_max":252,"o":"m 252 178 l 252 83 l -250 83 l -250 178 l 252 178 z "},"°":{"ha":555,"x_min":69,"x_max":486,"o":"m 278 653 q 131 714 192 653 q 69 861 69 775 q 131 1008 69 947 q 278 1069 192 1069 q 425 1008 364 1069 q 486 861 486 947 q 425 714 486 775 q 278 653 364 653 m 139 861 q 179 762 139 802 q 278 722 218 722 q 377 762 338 722 q 416 861 416 802 q 376 960 416 920 q 277 1000 336 1000 q 179 960 220 1000 q 139 861 139 920 z "},"±":{"ha":802,"x_min":46,"x_max":757,"o":"m 46 119 l 757 119 l 757 0 l 46 0 l 46 119 m 461 781 l 461 541 l 757 541 l 757 421 l 461 421 l 461 180 l 342 180 l 342 421 l 46 421 l 46 541 l 342 541 l 342 781 l 461 781 z "},"²":{"ha":802,"x_min":62,"x_max":739,"o":"m 739 119 l 739 0 l 62 0 l 521 562 q 594 671 575 629 q 614 750 614 713 q 553 892 614 833 q 408 950 492 950 q 267 894 328 950 q 207 758 207 838 l 77 758 q 179 985 92 900 q 408 1069 267 1069 q 642 979 545 1069 q 739 755 739 889 q 661 541 739 636 l 317 119 l 739 119 z "},"³":{"ha":802,"x_min":74,"x_max":728,"o":"m 382 608 q 531 648 475 608 q 587 777 587 688 q 536 906 587 856 q 406 956 485 956 q 289 915 335 956 q 232 806 243 875 l 103 806 q 200 1002 121 935 q 410 1069 279 1069 q 626 992 538 1069 q 713 787 713 916 q 579 551 713 626 q 690 448 653 517 q 728 292 728 379 q 633 63 728 149 q 393 -22 538 -22 q 169 56 264 -22 q 74 258 74 134 l 200 258 q 267 137 210 183 q 403 92 323 92 q 546 151 489 92 q 603 297 603 211 q 543 448 603 395 q 382 500 482 500 l 382 608 z "},"´":{"ha":500,"x_min":106,"x_max":395,"o":"m 395 958 l 167 751 l 106 789 l 279 1019 l 395 958 z "},"µ":{"ha":711,"x_min":81,"x_max":631,"o":"m 205 650 l 205 290 q 237 146 205 199 q 355 94 269 94 q 473 147 440 94 q 505 290 505 200 l 505 650 l 631 650 l 631 277 q 563 58 631 138 q 355 -22 494 -22 q 277 -6 315 -22 q 205 39 239 11 l 205 -372 l 81 -372 l 81 650 l 205 650 z "},"¶":{"ha":802,"x_min":57,"x_max":747,"o":"m 747 930 l 663 930 l 663 -212 l 546 -212 l 546 930 l 460 930 l 460 -212 l 343 -212 l 343 393 q 139 474 221 393 q 57 690 57 554 q 141 936 57 825 q 355 1047 225 1047 l 747 1047 l 747 930 z "},"¸":{"ha":458,"x_min":119,"x_max":339,"o":"m 193 -252 l 119 -214 l 240 -24 l 339 -64 l 193 -252 z "},"¹":{"ha":802,"x_min":171,"x_max":478,"o":"m 171 928 l 243 1047 l 478 1047 l 478 0 l 353 0 l 353 928 l 171 928 z "},"º":{"ha":450,"x_min":0,"x_max":452,"o":"m 452 861 q 386 714 452 774 q 225 654 321 654 q 65 714 131 654 q 0 861 0 774 q 64 1009 0 949 q 225 1069 129 1069 q 386 1010 321 1069 q 452 861 452 950 m 82 861 q 123 766 82 806 q 225 726 164 726 q 327 766 285 726 q 370 861 370 806 q 328 957 370 917 q 225 997 286 997 q 123 958 164 997 q 82 861 82 918 m 0 511 l 0 578 l 452 578 l 452 511 l 0 511 z "},"»":{"ha":726,"x_min":87,"x_max":685,"o":"m 294 444 l 87 721 l 165 778 l 418 444 l 165 122 l 87 179 l 294 444 m 561 444 l 354 721 l 432 778 l 685 444 l 432 122 l 354 179 l 561 444 z "},"¿":{"ha":629,"x_min":58,"x_max":557,"o":"m 85 218 q 153 375 85 309 q 310 441 221 441 q 468 378 403 441 q 533 220 533 314 q 487 89 533 131 q 351 13 441 46 q 222 -45 260 -21 q 184 -131 184 -69 q 220 -220 184 -186 q 313 -254 256 -254 q 397 -219 363 -254 q 432 -135 432 -184 q 430 -114 432 -125 q 424 -90 428 -103 l 554 -90 l 557 -136 q 483 -304 557 -236 q 309 -372 410 -372 q 130 -302 201 -372 q 58 -126 58 -232 q 78 -31 58 -77 q 131 44 98 16 q 200 87 164 72 q 294 120 236 103 q 379 160 351 138 q 407 225 407 183 q 379 296 407 267 q 310 325 351 325 q 238 295 265 325 q 211 218 211 265 l 85 218 m 390 625 q 367 568 390 592 q 310 545 343 545 q 253 568 277 545 q 229 625 229 591 q 253 682 229 659 q 310 705 277 705 q 367 682 343 705 q 390 625 390 659 z "},"À":{"ha":976,"x_min":-11,"x_max":989,"o":"m 249 262 l 129 0 l -11 0 l 489 1092 l 989 0 l 848 0 l 729 262 l 249 262 m 489 806 l 302 382 l 675 382 l 489 806 m 460 1417 l 633 1186 l 572 1149 l 345 1356 l 460 1417 z "},"Á":{"ha":976,"x_min":-11,"x_max":989,"o":"m 249 262 l 129 0 l -11 0 l 489 1092 l 989 0 l 848 0 l 729 262 l 249 262 m 489 806 l 302 382 l 675 382 l 489 806 m 633 1356 l 406 1149 l 345 1186 l 518 1417 l 633 1356 z "},"Â":{"ha":976,"x_min":-11,"x_max":989,"o":"m 249 262 l 129 0 l -11 0 l 489 1092 l 989 0 l 848 0 l 729 262 l 249 262 m 489 806 l 302 382 l 675 382 l 489 806 m 488 1417 l 711 1215 l 629 1152 l 488 1285 l 347 1152 l 267 1215 l 488 1417 z "},"Ã":{"ha":976,"x_min":-11,"x_max":989,"o":"m 249 262 l 129 0 l -11 0 l 489 1092 l 989 0 l 848 0 l 729 262 l 249 262 m 489 806 l 302 382 l 675 382 l 489 806 m 224 1249 l 228 1256 q 297 1336 265 1310 q 378 1361 328 1361 q 439 1353 412 1361 q 505 1323 465 1345 q 565 1295 545 1301 q 602 1288 585 1288 q 651 1306 629 1288 q 690 1354 673 1325 l 755 1300 q 689 1217 730 1247 q 592 1186 648 1186 q 541 1195 566 1186 q 476 1222 515 1203 q 415 1249 437 1240 q 368 1257 392 1257 q 323 1238 345 1257 q 289 1194 302 1218 l 224 1249 z "},"Ä":{"ha":976,"x_min":-11,"x_max":989,"o":"m 249 262 l 129 0 l -11 0 l 489 1092 l 989 0 l 848 0 l 729 262 l 249 262 m 489 806 l 302 382 l 675 382 l 489 806 m 427 1278 q 402 1218 427 1242 q 343 1194 378 1194 q 283 1218 307 1194 q 258 1278 258 1242 q 283 1337 258 1312 q 343 1361 307 1361 q 402 1337 378 1361 q 427 1278 427 1312 m 720 1278 q 695 1218 720 1242 q 636 1194 671 1194 q 576 1218 600 1194 q 551 1278 551 1242 q 576 1337 551 1312 q 636 1361 600 1361 q 695 1337 671 1361 q 720 1278 720 1312 z "},"Å":{"ha":976,"x_min":-11,"x_max":989,"o":"m 249 262 l 129 0 l -11 0 l 489 1092 l 989 0 l 848 0 l 729 262 l 249 262 m 489 806 l 302 382 l 675 382 l 489 806 m 615 1291 q 579 1202 615 1238 q 489 1166 543 1166 q 400 1202 436 1166 q 363 1291 363 1238 q 400 1379 363 1342 q 489 1417 436 1417 q 579 1381 543 1417 q 615 1291 615 1345 m 553 1291 q 534 1336 553 1317 q 489 1354 515 1354 q 445 1336 464 1354 q 426 1291 426 1317 q 444 1246 426 1264 q 489 1228 463 1228 q 533 1246 514 1228 q 553 1291 553 1264 z "},"Æ":{"ha":1384,"x_min":0,"x_max":1418,"o":"m 262 262 l 143 0 l 0 0 l 503 1047 l 961 1047 l 1014 928 l 585 928 l 711 635 l 1129 635 l 1185 515 l 765 515 l 933 119 l 1365 119 l 1418 0 l 854 0 l 739 262 l 262 262 m 510 787 l 318 382 l 690 382 l 510 787 z "},"Ç":{"ha":918,"x_min":41,"x_max":863,"o":"m 863 847 q 734 924 807 897 q 586 950 661 950 q 292 824 412 950 q 172 522 172 699 q 291 223 172 349 q 583 97 410 97 q 863 205 741 97 l 863 52 q 730 -3 804 17 q 587 -22 656 -22 q 201 135 361 -22 q 41 518 41 292 q 204 910 41 750 q 599 1069 367 1069 q 737 1052 671 1069 q 863 999 803 1035 l 863 847 m 424 -252 l 350 -214 l 471 -24 l 570 -64 l 424 -252 z "},"È":{"ha":724,"x_min":100,"x_max":663,"o":"m 100 1047 l 663 1047 l 663 928 l 231 928 l 231 635 l 650 635 l 650 515 l 231 515 l 231 119 l 663 119 l 663 0 l 100 0 l 100 1047 m 334 1417 l 507 1186 l 446 1149 l 218 1356 l 334 1417 z "},"É":{"ha":724,"x_min":100,"x_max":663,"o":"m 100 1047 l 663 1047 l 663 928 l 231 928 l 231 635 l 650 635 l 650 515 l 231 515 l 231 119 l 663 119 l 663 0 l 100 0 l 100 1047 m 524 1356 l 296 1149 l 235 1186 l 408 1417 l 524 1356 z "},"Ê":{"ha":724,"x_min":100,"x_max":663,"o":"m 100 1047 l 663 1047 l 663 928 l 231 928 l 231 635 l 650 635 l 650 515 l 231 515 l 231 119 l 663 119 l 663 0 l 100 0 l 100 1047 m 361 1417 l 585 1215 l 503 1152 l 361 1285 l 220 1152 l 140 1215 l 361 1417 z "},"Ë":{"ha":724,"x_min":100,"x_max":663,"o":"m 100 1047 l 663 1047 l 663 928 l 231 928 l 231 635 l 650 635 l 650 515 l 231 515 l 231 119 l 663 119 l 663 0 l 100 0 l 100 1047 m 317 1278 q 292 1218 317 1242 q 233 1194 268 1194 q 173 1218 197 1194 q 149 1278 149 1242 q 173 1337 149 1312 q 233 1361 197 1361 q 292 1337 268 1361 q 317 1278 317 1312 m 610 1278 q 586 1218 610 1242 q 526 1194 562 1194 q 466 1218 490 1194 q 441 1278 441 1242 q 466 1337 441 1312 q 526 1361 490 1361 q 585 1337 561 1361 q 610 1278 610 1312 z "},"Ì":{"ha":322,"x_min":17,"x_max":306,"o":"m 227 0 l 96 0 l 96 1047 l 227 1047 l 227 0 m 132 1417 l 306 1186 l 245 1149 l 17 1356 l 132 1417 z "},"Í":{"ha":322,"x_min":17,"x_max":306,"o":"m 227 0 l 96 0 l 96 1047 l 227 1047 l 227 0 m 306 1356 l 78 1149 l 17 1186 l 191 1417 l 306 1356 z "},"Î":{"ha":322,"x_min":-61,"x_max":383,"o":"m 227 0 l 96 0 l 96 1047 l 227 1047 l 227 0 m 159 1417 l 383 1215 l 301 1152 l 159 1285 l 19 1152 l -61 1215 l 159 1417 z "},"Ï":{"ha":322,"x_min":-70,"x_max":391,"o":"m 227 0 l 96 0 l 96 1047 l 227 1047 l 227 0 m 98 1278 q 74 1218 98 1242 q 15 1194 50 1194 q -45 1218 -21 1194 q -70 1278 -70 1242 q -45 1337 -70 1312 q 15 1361 -21 1361 q 74 1337 50 1361 q 98 1278 98 1312 m 391 1278 q 367 1218 391 1242 q 308 1194 343 1194 q 248 1218 272 1194 q 223 1278 223 1242 q 248 1337 223 1312 q 308 1361 272 1361 q 367 1337 342 1361 q 391 1278 391 1312 z "},"Ñ":{"ha":1090,"x_min":87,"x_max":1004,"o":"m 87 1097 l 873 273 l 873 1047 l 1004 1047 l 1004 -43 l 218 781 l 218 0 l 87 0 l 87 1097 m 281 1249 l 285 1256 q 354 1336 322 1310 q 435 1361 385 1361 q 496 1353 469 1361 q 562 1323 522 1345 q 622 1295 602 1301 q 659 1288 642 1288 q 708 1306 686 1288 q 747 1354 730 1325 l 812 1300 q 746 1217 787 1247 q 649 1186 705 1186 q 597 1195 623 1186 q 533 1222 572 1203 q 472 1249 494 1240 q 425 1257 449 1257 q 380 1238 401 1257 q 346 1194 359 1218 l 281 1249 z "},"Ò":{"ha":1149,"x_min":26,"x_max":1124,"o":"m 1124 524 q 964 135 1124 292 q 575 -22 804 -22 q 186 135 346 -22 q 26 524 26 292 q 188 909 26 749 q 575 1069 350 1069 q 962 909 800 1069 q 1124 524 1124 749 m 993 524 q 875 824 993 700 q 575 947 757 947 q 275 824 393 947 q 157 524 157 700 q 280 223 157 346 q 575 100 403 100 q 869 222 746 100 q 993 524 993 345 m 546 1417 l 720 1186 l 659 1149 l 431 1356 l 546 1417 z "},"Ó":{"ha":1149,"x_min":26,"x_max":1124,"o":"m 1124 524 q 964 135 1124 292 q 575 -22 804 -22 q 186 135 346 -22 q 26 524 26 292 q 188 909 26 749 q 575 1069 350 1069 q 962 909 800 1069 q 1124 524 1124 749 m 993 524 q 875 824 993 700 q 575 947 757 947 q 275 824 393 947 q 157 524 157 700 q 280 223 157 346 q 575 100 403 100 q 869 222 746 100 q 993 524 993 345 m 720 1356 l 492 1149 l 431 1186 l 604 1417 l 720 1356 z "},"Ô":{"ha":1149,"x_min":26,"x_max":1124,"o":"m 1124 524 q 964 135 1124 292 q 575 -22 804 -22 q 186 135 346 -22 q 26 524 26 292 q 188 909 26 749 q 575 1069 350 1069 q 962 909 800 1069 q 1124 524 1124 749 m 993 524 q 875 824 993 700 q 575 947 757 947 q 275 824 393 947 q 157 524 157 700 q 280 223 157 346 q 575 100 403 100 q 869 222 746 100 q 993 524 993 345 m 574 1417 l 798 1215 l 715 1152 l 574 1285 l 433 1152 l 353 1215 l 574 1417 z "},"Õ":{"ha":1149,"x_min":26,"x_max":1124,"o":"m 1124 524 q 964 135 1124 292 q 575 -22 804 -22 q 186 135 346 -22 q 26 524 26 292 q 188 909 26 749 q 575 1069 350 1069 q 962 909 800 1069 q 1124 524 1124 749 m 993 524 q 875 824 993 700 q 575 947 757 947 q 275 824 393 947 q 157 524 157 700 q 280 223 157 346 q 575 100 403 100 q 869 222 746 100 q 993 524 993 345 m 310 1249 l 314 1256 q 383 1336 351 1310 q 464 1361 414 1361 q 525 1353 498 1361 q 591 1323 551 1345 q 651 1295 631 1301 q 688 1288 671 1288 q 737 1306 715 1288 q 777 1354 759 1325 l 842 1300 q 775 1217 817 1247 q 678 1186 734 1186 q 627 1195 652 1186 q 563 1222 602 1203 q 501 1249 524 1240 q 454 1257 478 1257 q 409 1238 431 1257 q 375 1194 388 1218 l 310 1249 z "},"Ö":{"ha":1149,"x_min":26,"x_max":1124,"o":"m 1124 524 q 964 135 1124 292 q 575 -22 804 -22 q 186 135 346 -22 q 26 524 26 292 q 188 909 26 749 q 575 1069 350 1069 q 962 909 800 1069 q 1124 524 1124 749 m 993 524 q 875 824 993 700 q 575 947 757 947 q 275 824 393 947 q 157 524 157 700 q 280 223 157 346 q 575 100 403 100 q 869 222 746 100 q 993 524 993 345 m 513 1278 q 488 1218 513 1242 q 429 1194 464 1194 q 369 1218 393 1194 q 345 1278 345 1242 q 369 1337 345 1312 q 429 1361 393 1361 q 488 1337 464 1361 q 513 1278 513 1312 m 806 1278 q 782 1218 806 1242 q 722 1194 758 1194 q 662 1218 686 1194 q 637 1278 637 1242 q 662 1337 637 1312 q 722 1361 686 1361 q 781 1337 757 1361 q 806 1278 806 1312 z "},"Ø":{"ha":1149,"x_min":18,"x_max":1132,"o":"m 993 873 q 1088 707 1053 798 q 1124 524 1124 616 q 964 135 1124 292 q 575 -22 804 -22 q 384 10 469 -22 q 214 110 298 43 l 75 -29 l 18 29 l 155 167 q 58 327 89 241 q 26 524 26 412 q 188 909 26 749 q 575 1069 350 1069 q 770 1034 675 1069 q 937 930 865 999 l 1076 1069 l 1132 1013 l 993 873 m 847 846 q 723 922 795 896 q 575 947 650 947 q 275 824 393 947 q 157 524 157 700 q 248 252 157 370 l 847 846 m 310 197 q 430 124 361 149 q 575 100 498 100 q 869 222 746 100 q 993 524 993 345 q 901 786 993 669 l 310 197 z "},"Ù":{"ha":929,"x_min":82,"x_max":848,"o":"m 212 1047 l 212 429 q 269 190 212 281 q 465 100 325 100 q 661 191 604 100 q 718 429 718 282 l 718 1047 l 848 1047 l 848 385 q 745 92 848 207 q 465 -22 642 -22 q 185 92 289 -22 q 82 385 82 207 l 82 1047 l 212 1047 m 420 1417 l 593 1186 l 532 1149 l 304 1356 l 420 1417 z "},"Ú":{"ha":929,"x_min":82,"x_max":848,"o":"m 212 1047 l 212 429 q 269 190 212 281 q 465 100 325 100 q 661 191 604 100 q 718 429 718 282 l 718 1047 l 848 1047 l 848 385 q 745 92 848 207 q 465 -22 642 -22 q 185 92 289 -22 q 82 385 82 207 l 82 1047 l 212 1047 m 610 1356 l 382 1149 l 321 1186 l 494 1417 l 610 1356 z "},"Û":{"ha":929,"x_min":82,"x_max":848,"o":"m 212 1047 l 212 429 q 269 190 212 281 q 465 100 325 100 q 661 191 604 100 q 718 429 718 282 l 718 1047 l 848 1047 l 848 385 q 745 92 848 207 q 465 -22 642 -22 q 185 92 289 -22 q 82 385 82 207 l 82 1047 l 212 1047 m 464 1417 l 688 1215 l 606 1152 l 464 1285 l 323 1152 l 243 1215 l 464 1417 z "},"Ü":{"ha":929,"x_min":82,"x_max":848,"o":"m 212 1047 l 212 429 q 269 190 212 281 q 465 100 325 100 q 661 191 604 100 q 718 429 718 282 l 718 1047 l 848 1047 l 848 385 q 745 92 848 207 q 465 -22 642 -22 q 185 92 289 -22 q 82 385 82 207 l 82 1047 l 212 1047 m 403 1278 q 378 1218 403 1242 q 319 1194 354 1194 q 259 1218 283 1194 q 235 1278 235 1242 q 259 1337 235 1312 q 319 1361 283 1361 q 378 1337 354 1361 q 403 1278 403 1312 m 696 1278 q 672 1218 696 1242 q 612 1194 648 1194 q 552 1218 576 1194 q 528 1278 528 1242 q 552 1337 528 1312 q 612 1361 576 1361 q 671 1337 647 1361 q 696 1278 696 1312 z "},"Ý":{"ha":795,"x_min":-8,"x_max":806,"o":"m 627 1360 l 399 1153 l 338 1190 l 511 1421 l 627 1360 m -8 1047 l 142 1047 l 399 600 l 656 1047 l 806 1047 l 464 456 l 464 0 l 334 0 l 334 456 l -8 1047 z "},"ß":{"ha":805,"x_min":39,"x_max":787,"o":"m 392 94 q 582 173 500 94 q 663 358 663 252 q 586 546 663 476 q 392 615 510 615 l 392 737 q 525 793 471 737 q 579 929 579 848 q 526 1056 579 1006 q 399 1105 473 1105 q 250 1017 279 1105 q 220 777 220 929 l 220 0 l 94 0 l 94 536 l 39 536 l 39 653 l 94 653 l 94 859 q 166 1126 94 1031 q 403 1222 237 1222 q 619 1138 534 1222 q 704 922 704 1054 q 571 690 704 768 q 729 564 671 659 q 787 358 787 469 q 671 86 787 195 q 392 -22 555 -22 l 392 94 z "},"à":{"ha":772,"x_min":36,"x_max":696,"o":"m 578 325 q 522 491 578 425 q 367 558 465 558 q 218 490 274 558 q 161 325 161 421 q 217 158 161 228 q 367 89 272 89 q 522 156 465 89 q 578 325 578 223 m 696 0 l 571 0 l 571 102 q 472 11 530 45 q 347 -22 415 -22 q 119 80 203 -22 q 36 329 36 182 q 121 569 36 468 q 343 669 205 669 q 470 635 412 669 q 568 542 528 602 l 571 650 l 696 650 l 696 0 m 357 1019 l 531 789 l 470 751 l 242 958 l 357 1019 z "},"á":{"ha":772,"x_min":36,"x_max":696,"o":"m 578 325 q 522 491 578 425 q 367 558 465 558 q 218 490 274 558 q 161 325 161 421 q 217 158 161 228 q 367 89 272 89 q 522 156 465 89 q 578 325 578 223 m 696 0 l 571 0 l 571 102 q 472 11 530 45 q 347 -22 415 -22 q 119 80 203 -22 q 36 329 36 182 q 121 569 36 468 q 343 669 205 669 q 470 635 412 669 q 568 542 528 602 l 571 650 l 696 650 l 696 0 m 531 958 l 303 751 l 242 789 l 416 1019 l 531 958 z "},"â":{"ha":772,"x_min":36,"x_max":696,"o":"m 578 325 q 522 491 578 425 q 367 558 465 558 q 218 490 274 558 q 161 325 161 421 q 217 158 161 228 q 367 89 272 89 q 522 156 465 89 q 578 325 578 223 m 696 0 l 571 0 l 571 102 q 472 11 530 45 q 347 -22 415 -22 q 119 80 203 -22 q 36 329 36 182 q 121 569 36 468 q 343 669 205 669 q 470 635 412 669 q 568 542 528 602 l 571 650 l 696 650 l 696 0 m 385 1019 l 608 818 l 526 754 l 385 888 l 244 754 l 164 818 l 385 1019 z "},"ã":{"ha":772,"x_min":36,"x_max":696,"o":"m 578 325 q 522 491 578 425 q 367 558 465 558 q 218 490 274 558 q 161 325 161 421 q 217 158 161 228 q 367 89 272 89 q 522 156 465 89 q 578 325 578 223 m 696 0 l 571 0 l 571 102 q 472 11 530 45 q 347 -22 415 -22 q 119 80 203 -22 q 36 329 36 182 q 121 569 36 468 q 343 669 205 669 q 470 635 412 669 q 568 542 528 602 l 571 650 l 696 650 l 696 0 m 121 851 l 125 859 q 194 938 162 913 q 275 964 225 964 q 336 956 309 964 q 402 926 362 947 q 462 897 441 904 q 498 890 482 890 q 548 909 526 890 q 587 957 570 928 l 652 903 q 586 819 627 850 q 489 789 545 789 q 437 797 463 789 q 373 824 412 806 q 312 851 334 843 q 265 860 289 860 q 220 840 241 860 q 186 796 199 821 l 121 851 z "},"ä":{"ha":772,"x_min":36,"x_max":696,"o":"m 578 325 q 522 491 578 425 q 367 558 465 558 q 218 490 274 558 q 161 325 161 421 q 217 158 161 228 q 367 89 272 89 q 522 156 465 89 q 578 325 578 223 m 696 0 l 571 0 l 571 102 q 472 11 530 45 q 347 -22 415 -22 q 119 80 203 -22 q 36 329 36 182 q 121 569 36 468 q 343 669 205 669 q 470 635 412 669 q 568 542 528 602 l 571 650 l 696 650 l 696 0 m 323 880 q 299 820 323 844 q 240 796 275 796 q 180 820 204 796 q 155 880 155 844 q 180 939 155 915 q 240 964 204 964 q 299 939 275 964 q 323 880 323 915 m 616 880 q 592 820 616 844 q 533 796 568 796 q 473 820 497 796 q 448 880 448 844 q 473 939 448 915 q 533 964 497 964 q 592 939 568 964 q 616 880 616 915 z "},"å":{"ha":772,"x_min":36,"x_max":696,"o":"m 578 325 q 522 491 578 425 q 367 558 465 558 q 218 490 274 558 q 161 325 161 421 q 217 158 161 228 q 367 89 272 89 q 522 156 465 89 q 578 325 578 223 m 696 0 l 571 0 l 571 102 q 472 11 530 45 q 347 -22 415 -22 q 119 80 203 -22 q 36 329 36 182 q 121 569 36 468 q 343 669 205 669 q 470 635 412 669 q 568 542 528 602 l 571 650 l 696 650 l 696 0 m 513 893 q 477 804 513 840 q 387 768 441 768 q 297 804 334 768 q 261 893 261 840 q 297 982 261 945 q 387 1019 334 1019 q 477 983 441 1019 q 513 893 513 947 m 450 893 q 432 938 450 920 q 387 957 413 957 q 342 938 361 957 q 323 893 323 920 q 342 849 323 867 q 387 831 360 831 q 431 849 412 831 q 450 893 450 867 z "},"æ":{"ha":1120,"x_min":36,"x_max":1100,"o":"m 978 399 q 920 518 966 475 q 799 561 873 561 q 677 516 727 561 q 614 399 627 471 l 978 399 m 153 193 q 203 115 153 140 q 311 89 253 89 q 421 116 371 89 q 472 197 472 143 q 419 276 472 250 q 307 302 366 302 q 201 275 249 302 q 153 193 153 248 m 604 304 q 659 154 604 218 q 800 89 714 89 q 912 119 868 89 q 994 215 956 150 l 1100 155 q 974 25 1055 73 q 799 -22 893 -22 q 662 9 727 -22 q 549 98 597 41 q 442 9 510 40 q 300 -22 374 -22 q 115 33 194 -22 q 36 191 36 87 q 107 351 36 294 q 282 408 178 408 q 390 395 340 408 q 479 349 439 382 l 479 393 q 309 561 479 562 q 212 557 250 561 q 131 541 174 554 l 131 652 q 326 669 222 670 q 456 642 393 669 q 549 562 519 615 q 796 669 635 669 q 1022 573 945 669 q 1100 323 1100 476 l 1100 304 l 604 304 z "},"ç":{"ha":612,"x_min":36,"x_max":564,"o":"m 564 465 q 378 553 487 553 q 224 485 286 553 q 161 325 161 418 q 224 159 161 223 q 386 94 288 94 q 483 115 440 94 q 564 180 525 136 l 564 21 q 385 -22 483 -22 q 137 76 239 -22 q 36 319 36 175 q 139 569 36 469 q 392 669 241 669 q 482 660 439 669 q 564 627 525 650 l 564 465 m 271 -252 l 197 -214 l 318 -24 l 417 -64 l 271 -252 z "},"è":{"ha":677,"x_min":36,"x_max":657,"o":"m 161 304 q 216 154 161 218 q 357 89 271 89 q 469 119 425 89 q 551 215 513 150 l 657 155 q 531 25 612 73 q 355 -22 450 -22 q 123 74 210 -22 q 36 319 36 171 q 118 573 36 476 q 353 669 200 669 q 579 573 501 669 q 657 323 657 476 l 657 304 l 161 304 m 532 399 q 474 518 519 475 q 353 561 428 561 q 231 516 281 561 q 168 399 180 471 l 532 399 m 310 1019 l 484 789 l 422 751 l 195 958 l 310 1019 z "},"é":{"ha":677,"x_min":36,"x_max":657,"o":"m 161 304 q 216 154 161 218 q 357 89 271 89 q 469 119 425 89 q 551 215 513 150 l 657 155 q 531 25 612 73 q 355 -22 450 -22 q 123 74 210 -22 q 36 319 36 171 q 118 573 36 476 q 353 669 200 669 q 579 573 501 669 q 657 323 657 476 l 657 304 l 161 304 m 532 399 q 474 518 519 475 q 353 561 428 561 q 231 516 281 561 q 168 399 180 471 l 532 399 m 484 958 l 256 751 l 195 789 l 368 1019 l 484 958 z "},"ê":{"ha":677,"x_min":36,"x_max":657,"o":"m 161 304 q 216 154 161 218 q 357 89 271 89 q 469 119 425 89 q 551 215 513 150 l 657 155 q 531 25 612 73 q 355 -22 450 -22 q 123 74 210 -22 q 36 319 36 171 q 118 573 36 476 q 353 669 200 669 q 579 573 501 669 q 657 323 657 476 l 657 304 l 161 304 m 532 399 q 474 518 519 475 q 353 561 428 561 q 231 516 281 561 q 168 399 180 471 l 532 399 m 337 1019 l 561 818 l 479 754 l 337 888 l 197 754 l 117 818 l 337 1019 z "},"ë":{"ha":677,"x_min":36,"x_max":657,"o":"m 161 304 q 216 154 161 218 q 357 89 271 89 q 469 119 425 89 q 551 215 513 150 l 657 155 q 531 25 612 73 q 355 -22 450 -22 q 123 74 210 -22 q 36 319 36 171 q 118 573 36 476 q 353 669 200 669 q 579 573 501 669 q 657 323 657 476 l 657 304 l 161 304 m 532 399 q 474 518 519 475 q 353 561 428 561 q 231 516 281 561 q 168 399 180 471 l 532 399 m 276 880 q 252 820 276 844 q 193 796 227 796 q 132 820 157 796 q 108 880 108 844 q 132 939 108 915 q 193 964 157 964 q 252 939 227 964 q 276 880 276 915 m 569 880 q 545 820 569 844 q 486 796 521 796 q 425 820 450 796 q 401 880 401 844 q 425 939 401 915 q 486 964 450 964 q 545 939 520 964 q 569 880 569 915 z "},"ì":{"ha":353,"x_min":32,"x_max":321,"o":"m 239 0 l 114 0 l 114 650 l 239 650 l 239 0 m 147 1019 l 321 789 l 260 751 l 32 958 l 147 1019 z "},"í":{"ha":353,"x_min":32,"x_max":321,"o":"m 239 0 l 114 0 l 114 650 l 239 650 l 239 0 m 321 958 l 93 751 l 32 789 l 205 1019 l 321 958 z "},"î":{"ha":353,"x_min":-45,"x_max":399,"o":"m 239 0 l 114 0 l 114 650 l 239 650 l 239 0 m 175 1019 l 399 818 l 317 754 l 175 888 l 35 754 l -45 818 l 175 1019 z "},"ï":{"ha":353,"x_min":-54,"x_max":407,"o":"m 239 0 l 114 0 l 114 650 l 239 650 l 239 0 m 114 880 q 90 820 114 844 q 31 796 65 796 q -30 820 -5 796 q -54 880 -54 844 q -30 939 -54 915 q 31 964 -5 964 q 90 939 65 964 q 114 880 114 915 m 407 880 q 383 820 407 844 q 323 796 359 796 q 263 820 288 796 q 239 880 239 844 q 263 939 239 915 q 323 964 288 964 q 382 939 358 964 q 407 880 407 915 z "},"ñ":{"ha":726,"x_min":86,"x_max":640,"o":"m 211 562 q 295 642 241 614 q 410 669 349 669 q 589 594 537 669 q 640 387 640 519 l 640 0 l 515 0 l 515 372 q 488 513 515 468 q 372 558 461 558 q 238 490 265 558 q 211 298 211 422 l 211 0 l 86 0 l 86 650 l 211 650 l 211 562 m 98 851 l 102 859 q 171 938 140 913 q 252 964 203 964 q 313 956 287 964 q 379 926 340 947 q 439 897 419 904 q 476 890 460 890 q 526 909 504 890 q 565 957 547 928 l 630 903 q 564 819 605 850 q 467 789 522 789 q 415 797 440 789 q 351 824 390 806 q 289 851 312 843 q 243 860 267 860 q 198 840 219 860 q 163 796 176 821 l 98 851 z "},"ò":{"ha":749,"x_min":28,"x_max":722,"o":"m 722 323 q 622 77 722 176 q 375 -22 521 -22 q 129 77 229 -22 q 28 323 28 176 q 129 570 28 471 q 375 669 229 669 q 622 570 521 669 q 722 323 722 471 m 153 323 q 217 164 153 232 q 375 97 282 97 q 532 164 467 97 q 597 323 597 231 q 533 484 597 418 q 375 550 468 550 q 218 483 283 550 q 153 323 153 416 m 346 1019 l 519 789 l 458 751 l 231 958 l 346 1019 z "},"ó":{"ha":749,"x_min":28,"x_max":722,"o":"m 722 323 q 622 77 722 176 q 375 -22 521 -22 q 129 77 229 -22 q 28 323 28 176 q 129 570 28 471 q 375 669 229 669 q 622 570 521 669 q 722 323 722 471 m 153 323 q 217 164 153 232 q 375 97 282 97 q 532 164 467 97 q 597 323 597 231 q 533 484 597 418 q 375 550 468 550 q 218 483 283 550 q 153 323 153 416 m 519 958 l 292 751 l 231 789 l 404 1019 l 519 958 z "},"ô":{"ha":749,"x_min":28,"x_max":722,"o":"m 722 323 q 622 77 722 176 q 375 -22 521 -22 q 129 77 229 -22 q 28 323 28 176 q 129 570 28 471 q 375 669 229 669 q 622 570 521 669 q 722 323 722 471 m 153 323 q 217 164 153 232 q 375 97 282 97 q 532 164 467 97 q 597 323 597 231 q 533 484 597 418 q 375 550 468 550 q 218 483 283 550 q 153 323 153 416 m 374 1019 l 597 818 l 515 754 l 374 888 l 233 754 l 153 818 l 374 1019 z "},"õ":{"ha":749,"x_min":28,"x_max":722,"o":"m 722 323 q 622 77 722 176 q 375 -22 521 -22 q 129 77 229 -22 q 28 323 28 176 q 129 570 28 471 q 375 669 229 669 q 622 570 521 669 q 722 323 722 471 m 153 323 q 217 164 153 232 q 375 97 282 97 q 532 164 467 97 q 597 323 597 231 q 533 484 597 418 q 375 550 468 550 q 218 483 283 550 q 153 323 153 416 m 110 851 l 114 859 q 183 938 151 913 q 264 964 214 964 q 325 956 298 964 q 391 926 351 947 q 451 897 431 904 q 488 890 471 890 q 537 909 515 890 q 576 957 559 928 l 642 903 q 575 819 616 850 q 478 789 534 789 q 427 797 452 789 q 362 824 401 806 q 301 851 323 843 q 254 860 278 860 q 209 840 231 860 q 175 796 188 821 l 110 851 z "},"ö":{"ha":749,"x_min":28,"x_max":722,"o":"m 722 323 q 622 77 722 176 q 375 -22 521 -22 q 129 77 229 -22 q 28 323 28 176 q 129 570 28 471 q 375 669 229 669 q 622 570 521 669 q 722 323 722 471 m 153 323 q 217 164 153 232 q 375 97 282 97 q 532 164 467 97 q 597 323 597 231 q 533 484 597 418 q 375 550 468 550 q 218 483 283 550 q 153 323 153 416 m 313 880 q 288 820 313 844 q 229 796 264 796 q 169 820 193 796 q 144 880 144 844 q 169 939 144 915 q 229 964 193 964 q 288 939 264 964 q 313 880 313 915 m 606 880 q 582 820 606 844 q 522 796 557 796 q 462 820 486 796 q 437 880 437 844 q 462 939 437 915 q 522 964 486 964 q 581 939 557 964 q 606 880 606 915 z "},"÷":{"ha":802,"x_min":46,"x_max":757,"o":"m 46 415 l 757 415 l 757 296 l 46 296 l 46 415 m 488 85 q 463 25 488 50 q 401 0 437 0 q 340 24 366 0 q 315 85 315 47 q 340 146 315 121 q 401 172 364 172 q 463 147 437 172 q 488 85 488 122 m 488 624 q 463 564 488 589 q 401 539 437 539 q 340 563 366 539 q 315 624 315 586 q 340 686 315 660 q 401 711 364 711 q 463 686 437 711 q 488 624 488 661 z "},"ø":{"ha":749,"x_min":21,"x_max":730,"o":"m 640 549 q 701 440 679 497 q 722 323 722 383 q 622 77 722 176 q 375 -22 521 -22 q 149 58 246 -22 l 64 -31 l 21 12 l 106 98 q 48 206 68 151 q 28 323 28 261 q 129 570 28 471 q 375 669 229 669 q 492 649 433 669 q 596 589 551 628 l 688 682 l 730 637 l 640 549 m 507 504 q 375 550 449 550 q 218 483 283 550 q 153 323 153 416 q 197 186 153 252 l 507 504 m 240 142 q 301 107 271 117 q 375 97 332 97 q 532 164 467 97 q 597 323 597 231 q 549 458 597 403 l 240 142 z "},"ù":{"ha":711,"x_min":81,"x_max":631,"o":"m 205 650 l 205 290 q 237 146 205 199 q 355 94 269 94 q 473 147 440 94 q 505 290 505 200 l 505 650 l 631 650 l 631 277 q 563 58 631 138 q 355 -22 494 -22 q 149 57 216 -22 q 81 277 81 136 l 81 650 l 205 650 m 327 1019 l 500 789 l 439 751 l 212 958 l 327 1019 z "},"ú":{"ha":711,"x_min":81,"x_max":631,"o":"m 205 650 l 205 290 q 237 146 205 199 q 355 94 269 94 q 473 147 440 94 q 505 290 505 200 l 505 650 l 631 650 l 631 277 q 563 58 631 138 q 355 -22 494 -22 q 149 57 216 -22 q 81 277 81 136 l 81 650 l 205 650 m 500 958 l 273 751 l 212 789 l 385 1019 l 500 958 z "},"û":{"ha":711,"x_min":81,"x_max":631,"o":"m 205 650 l 205 290 q 237 146 205 199 q 355 94 269 94 q 473 147 440 94 q 505 290 505 200 l 505 650 l 631 650 l 631 277 q 563 58 631 138 q 355 -22 494 -22 q 149 57 216 -22 q 81 277 81 136 l 81 650 l 205 650 m 354 1019 l 578 818 l 496 754 l 354 888 l 214 754 l 134 818 l 354 1019 z "},"ü":{"ha":711,"x_min":81,"x_max":631,"o":"m 205 650 l 205 290 q 237 146 205 199 q 355 94 269 94 q 473 147 440 94 q 505 290 505 200 l 505 650 l 631 650 l 631 277 q 563 58 631 138 q 355 -22 494 -22 q 149 57 216 -22 q 81 277 81 136 l 81 650 l 205 650 m 293 880 q 269 820 293 844 q 210 796 244 796 q 149 820 174 796 q 125 880 125 844 q 149 939 125 915 q 210 964 174 964 q 269 939 244 964 q 293 880 293 915 m 586 880 q 562 820 586 844 q 503 796 538 796 q 442 820 467 796 q 418 880 418 844 q 442 939 418 915 q 503 964 467 964 q 562 939 537 964 q 586 880 586 915 z "},"ý":{"ha":672,"x_min":-18,"x_max":692,"o":"m 564 960 l 336 753 l 275 790 l 449 1021 l 564 960 m -18 650 l 127 650 l 347 237 l 551 650 l 692 650 l 165 -372 l 24 -372 l 279 111 l -18 650 z "},"ÿ":{"ha":672,"x_min":-18,"x_max":692,"o":"m -18 650 l 127 650 l 347 237 l 551 650 l 692 650 l 165 -372 l 24 -372 l 279 111 l -18 650 m 273 880 q 249 820 273 844 q 190 796 224 796 q 130 820 154 796 q 105 880 105 844 q 130 939 105 915 q 190 964 154 964 q 249 939 224 964 q 273 880 273 915 m 566 880 q 542 820 566 844 q 483 796 518 796 q 422 820 447 796 q 398 880 398 844 q 422 939 398 915 q 483 964 447 964 q 542 939 517 964 q 566 880 566 915 z "},"ı":{"ha":353,"x_min":114,"x_max":239,"o":"m 239 0 l 114 0 l 114 650 l 239 650 l 239 0 z "},"Œ":{"ha":1587,"x_min":26,"x_max":1546,"o":"m 997 175 q 814 30 926 82 q 575 -22 701 -22 q 186 135 346 -22 q 26 524 26 292 q 188 909 26 749 q 575 1069 350 1069 q 812 1015 699 1069 q 994 864 925 961 l 997 1047 l 1546 1047 l 1546 928 l 1116 928 l 1116 635 l 1533 635 l 1533 515 l 1116 515 l 1116 119 l 1546 119 l 1546 0 l 997 0 l 997 175 m 993 524 q 875 824 993 700 q 575 947 757 947 q 275 824 393 947 q 157 524 157 700 q 280 223 157 346 q 575 100 403 100 q 869 222 746 100 q 993 524 993 345 z "},"œ":{"ha":1246,"x_min":28,"x_max":1225,"o":"m 1099 399 q 1040 518 1086 475 q 920 561 994 561 q 798 516 848 561 q 734 399 747 471 l 1099 399 m 153 323 q 217 164 153 232 q 375 97 282 97 q 532 164 467 97 q 597 323 597 231 q 533 484 597 418 q 375 550 468 550 q 218 483 283 550 q 153 323 153 416 m 729 304 q 784 154 729 218 q 925 89 839 89 q 1037 119 993 89 q 1120 215 1080 150 l 1225 155 q 1099 25 1180 73 q 924 -22 1018 -22 q 766 15 839 -22 q 653 121 693 53 q 533 15 607 53 q 375 -22 458 -22 q 129 77 229 -22 q 28 323 28 176 q 129 570 28 471 q 375 669 229 669 q 531 630 456 669 q 653 524 607 591 q 921 669 745 669 q 1147 573 1069 669 q 1225 323 1225 476 l 1225 304 l 729 304 z "},"Ÿ":{"ha":795,"x_min":-8,"x_max":806,"o":"m -8 1047 l 142 1047 l 399 600 l 656 1047 l 806 1047 l 464 456 l 464 0 l 334 0 l 334 456 l -8 1047 m 336 1278 q 311 1218 336 1242 q 252 1194 287 1194 q 192 1218 216 1194 q 168 1278 168 1242 q 192 1337 168 1312 q 252 1361 216 1361 q 311 1337 287 1361 q 336 1278 336 1312 m 629 1278 q 605 1218 629 1242 q 545 1194 581 1194 q 485 1218 509 1194 q 460 1278 460 1242 q 485 1337 460 1312 q 545 1361 509 1361 q 604 1337 580 1361 q 629 1278 629 1312 z "},"ˆ":{"ha":802,"x_min":46,"x_max":757,"o":"m 323 1047 l 479 1047 l 757 428 l 627 428 l 401 930 l 175 428 l 46 428 l 323 1047 z "},"ˉ":{"ha":694,"x_min":97,"x_max":599,"o":"m 599 964 l 599 869 l 97 869 l 97 964 l 599 964 z "},"˚":{"ha":500,"x_min":125,"x_max":376,"o":"m 376 893 q 340 804 376 840 q 250 768 304 768 q 161 804 197 768 q 125 893 125 840 q 161 982 125 945 q 250 1019 197 1019 q 340 983 304 1019 q 376 893 376 947 m 314 893 q 295 938 314 920 q 250 957 277 957 q 206 938 225 957 q 187 893 187 920 q 205 849 187 867 q 250 831 224 831 q 295 849 275 831 q 314 893 314 867 z "},"˜":{"ha":401,"x_min":-267,"x_max":265,"o":"m -267 146 l -262 153 q -194 233 -225 208 q -113 258 -162 258 q -52 250 -78 258 q 15 220 -25 242 q 75 192 54 199 q 111 185 95 185 q 161 204 139 185 q 200 252 182 222 l 265 197 q 199 114 240 144 q 102 83 157 83 q 50 92 75 83 q -14 119 25 100 q -76 146 -53 138 q -122 155 -98 155 q -167 135 -146 155 q -201 91 -189 115 l -267 146 z "},"̂":{"ha":652,"x_min":104,"x_max":549,"o":"m 325 1019 l 549 818 l 467 754 l 325 888 l 184 754 l 104 818 l 325 1019 z "},"̃":{"ha":708,"x_min":89,"x_max":621,"o":"m 89 851 l 93 859 q 162 938 130 913 q 243 964 193 964 q 304 956 277 964 q 370 926 330 947 q 430 897 410 904 q 467 890 450 890 q 516 909 494 890 q 555 957 538 928 l 621 903 q 554 819 595 850 q 457 789 513 789 q 406 797 431 789 q 341 824 380 806 q 280 851 302 843 q 233 860 257 860 q 188 840 210 860 q 154 796 167 821 l 89 851 z "}," ":{"ha":709,"x_min":0,"x_max":0,"o":""}," ":{"ha":1421,"x_min":0,"x_max":0,"o":""}," ":{"ha":709,"x_min":0,"x_max":0,"o":""}," ":{"ha":1421,"x_min":0,"x_max":0,"o":""}," ":{"ha":473,"x_min":0,"x_max":0,"o":""}," ":{"ha":354,"x_min":0,"x_max":0,"o":""}," ":{"ha":236,"x_min":0,"x_max":0,"o":""}," ":{"ha":236,"x_min":0,"x_max":0,"o":""}," ":{"ha":176,"x_min":0,"x_max":0,"o":""}," ":{"ha":283,"x_min":0,"x_max":0,"o":""}," ":{"ha":77,"x_min":0,"x_max":0,"o":""},"‐":{"ha":460,"x_min":79,"x_max":383,"o":"m 383 497 l 383 393 l 79 393 l 79 497 l 383 497 z "},"‑":{"ha":460,"x_min":79,"x_max":383,"o":"m 383 497 l 383 393 l 79 393 l 79 497 l 383 497 z "},"‒":{"ha":460,"x_min":79,"x_max":383,"o":"m 383 497 l 383 393 l 79 393 l 79 497 l 383 497 z "},"–":{"ha":694,"x_min":0,"x_max":694,"o":"m 694 497 l 694 393 l 0 393 l 0 497 l 694 497 z "},"—":{"ha":1389,"x_min":0,"x_max":1389,"o":"m 1389 497 l 1389 393 l 0 393 l 0 497 l 1389 497 z "},"‘":{"ha":385,"x_min":83,"x_max":346,"o":"m 83 699 l 268 1069 l 346 1038 l 193 656 l 83 699 z "},"’":{"ha":385,"x_min":39,"x_max":301,"o":"m 301 1026 l 117 656 l 39 688 l 192 1069 l 301 1026 z "},"‚":{"ha":385,"x_min":75,"x_max":336,"o":"m 336 122 l 151 -249 l 75 -216 l 228 165 l 336 122 z "},"“":{"ha":610,"x_min":83,"x_max":576,"o":"m 314 699 l 498 1069 l 576 1038 l 424 656 l 314 699 m 83 699 l 268 1069 l 346 1038 l 193 656 l 83 699 z "},"”":{"ha":610,"x_min":33,"x_max":526,"o":"m 296 1026 l 111 656 l 33 688 l 186 1069 l 296 1026 m 526 1026 l 342 656 l 264 688 l 416 1069 l 526 1026 z "},"„":{"ha":610,"x_min":69,"x_max":561,"o":"m 330 122 l 146 -249 l 69 -216 l 222 165 l 330 122 m 561 122 l 376 -249 l 300 -216 l 453 165 l 561 122 z "},"•":{"ha":802,"x_min":140,"x_max":664,"o":"m 140 524 q 215 710 140 633 q 401 786 290 786 q 588 710 511 786 q 664 524 664 633 q 586 339 664 415 q 401 262 509 262 q 217 337 293 262 q 140 524 140 412 z "},"…":{"ha":1389,"x_min":150,"x_max":1239,"o":"m 775 58 q 751 1 775 25 q 694 -22 728 -22 q 637 1 661 -22 q 614 58 614 25 q 637 115 614 92 q 694 139 661 139 q 751 115 728 139 q 775 58 775 92 m 1239 58 q 1215 1 1239 25 q 1158 -22 1192 -22 q 1101 1 1125 -22 q 1078 58 1078 25 q 1101 115 1078 92 q 1158 139 1125 139 q 1215 115 1192 139 q 1239 58 1239 92 m 311 58 q 288 1 311 25 q 231 -22 264 -22 q 174 1 197 -22 q 150 58 150 25 q 174 115 150 92 q 231 139 197 139 q 288 115 264 139 q 311 58 311 92 z "}," ":{"ha":283,"x_min":0,"x_max":0,"o":""},"‹":{"ha":467,"x_min":31,"x_max":361,"o":"m 361 179 l 283 122 l 31 444 l 283 778 l 361 721 l 154 444 l 361 179 z "},"›":{"ha":467,"x_min":106,"x_max":436,"o":"m 313 444 l 106 721 l 183 778 l 436 444 l 183 122 l 106 179 l 313 444 z "}," ":{"ha":354,"x_min":0,"x_max":0,"o":""},"™":{"ha":1305,"x_min":47,"x_max":1258,"o":"m 1258 463 l 1169 463 l 1169 958 l 966 463 l 913 463 l 718 958 l 715 463 l 627 463 l 627 1047 l 772 1047 l 940 635 l 1114 1047 l 1258 1047 l 1258 463 m 519 958 l 328 958 l 328 463 l 239 463 l 239 958 l 47 958 l 47 1047 l 519 1047 l 519 958 z "},"":{"ha":651,"x_min":0,"x_max":651,"o":"m 0 651 l 651 651 l 651 0 l 0 0 l 0 651 z "},"ﬁ":{"ha":734,"x_min":54,"x_max":644,"o":"m 621 0 l 496 0 l 496 650 l 621 650 l 621 0 m 644 947 q 619 888 644 913 q 558 863 594 863 q 497 886 522 863 q 472 947 472 909 q 496 1009 472 983 q 558 1035 521 1035 q 619 1010 594 1035 q 644 947 644 985 m 408 1079 q 363 1098 385 1090 q 325 1105 342 1105 q 251 1056 267 1105 q 236 929 236 1006 l 236 650 l 408 650 l 408 533 l 236 533 l 236 0 l 111 0 l 111 533 l 54 533 l 54 650 l 111 650 l 111 966 q 160 1153 111 1083 q 321 1222 208 1222 q 408 1206 367 1222 l 408 1079 z "},"ﬂ":{"ha":690,"x_min":54,"x_max":598,"o":"m 598 0 l 473 0 l 473 1206 l 598 1206 l 598 0 m 408 1079 q 363 1098 385 1090 q 325 1105 342 1105 q 251 1056 267 1105 q 236 929 236 1006 l 236 650 l 408 650 l 408 533 l 236 533 l 236 0 l 111 0 l 111 533 l 54 533 l 54 650 l 111 650 l 111 966 q 160 1153 111 1083 q 321 1222 208 1222 q 408 1206 367 1222 l 408 1079 z "},"ﬃ":{"ha":1116,"x_min":54,"x_max":1026,"o":"m 1002 0 l 878 0 l 878 650 l 1002 650 l 1002 0 m 1026 947 q 1001 888 1026 913 q 940 863 976 863 q 879 886 904 863 q 854 947 854 909 q 878 1009 854 983 q 940 1035 903 1035 q 1001 1010 976 1035 q 1026 947 1026 985 m 790 1079 q 745 1098 766 1090 q 707 1105 724 1105 q 633 1056 648 1105 q 618 929 618 1006 l 618 650 l 790 650 l 790 533 l 618 533 l 618 0 l 493 0 l 493 533 l 436 533 l 436 650 l 493 650 l 493 966 q 542 1153 493 1083 q 703 1222 590 1222 q 790 1206 749 1222 l 790 1079 m 408 1079 q 363 1098 385 1090 q 325 1105 342 1105 q 251 1056 267 1105 q 236 929 236 1006 l 236 650 l 408 650 l 408 533 l 236 533 l 236 0 l 111 0 l 111 533 l 54 533 l 54 650 l 111 650 l 111 966 q 160 1153 111 1083 q 321 1222 208 1222 q 408 1206 367 1222 l 408 1079 z "},"ﬄ":{"ha":1072,"x_min":54,"x_max":980,"o":"m 980 0 l 855 0 l 855 1206 l 980 1206 l 980 0 m 790 1079 q 745 1098 766 1090 q 707 1105 724 1105 q 633 1056 648 1105 q 618 929 618 1006 l 618 650 l 790 650 l 790 533 l 618 533 l 618 0 l 493 0 l 493 533 l 436 533 l 436 650 l 493 650 l 493 966 q 542 1153 493 1083 q 703 1222 590 1222 q 790 1206 749 1222 l 790 1079 m 408 1079 q 363 1098 385 1090 q 325 1105 342 1105 q 251 1056 267 1105 q 236 929 236 1006 l 236 650 l 408 650 l 408 533 l 236 533 l 236 0 l 111 0 l 111 533 l 54 533 l 54 650 l 111 650 l 111 966 q 160 1153 111 1083 q 321 1222 208 1222 q 408 1206 367 1222 l 408 1079 z "}}}
